<?xml version="1.0" encoding="iso-8859-1"?>
<!-- Generator: Adobe Illustrator 16.0.0, SVG Export Plug-In . SVG Version: 6.00 Build 0)  -->
<!DOCTYPE svg PUBLIC "-//W3C//DTD SVG 1.1//EN" "http://www.w3.org/Graphics/SVG/1.1/DTD/svg11.dtd">
<svg version="1.1" id="Capa_1" xmlns="http://www.w3.org/2000/svg" xmlns:xlink="http://www.w3.org/1999/xlink" x="0px" y="0px"
	 width="439.801px" height="439.801px" viewBox="0 0 439.801 439.801" style="enable-background:new 0 0 439.801 439.801;"
	 xml:space="preserve">
<g>
	<path d="M219.9,0C97.5,0,0,97.5,0,219.9C0,342.301,97.5,439.801,219.9,439.801c122.4,0,219.9-97.4,219.9-219.801
		C439.8,97.6,342.3,0,219.9,0z M393.9,246.699c3.801,3.801,3.801,9.602,0,13.4c-3.8,3.801-9.6,3.801-13.399,0l-26.8-26.699
		c0,0-1.9-1.9-1.9-3.801h-109l44,44h1.9H326.9c5.7,0,9.601,3.801,9.601,9.6c0,5.801-3.8,9.602-9.601,9.602h-21l15.301,15.299
		c3.8,3.801,3.8,9.6,0,13.4c-3.801,3.801-9.601,3.801-13.4,0l-15.3-15.301v23c0,5.701-3.8,9.602-9.601,9.602
		c-5.8,0-9.6-3.801-9.6-9.602V291c0-1.9,0-1.9,0-3.801l-44-44v109c1.9,0,1.9,1.9,3.8,1.9l26.8,26.801c3.801,3.799,3.801,9.6,0,13.4
		c-3.8,3.799-9.6,3.799-13.399,0L229.3,377.1V392.4c0,5.699-3.8,9.6-9.6,9.6c-5.801,0-9.601-3.801-9.601-9.6V379l-15.3,15.301
		c-3.8,3.799-9.6,3.799-13.4,0c-3.8-3.801-3.8-9.602,0-13.4l26.8-26.801l1.9-1.9v-109l-44,44c0,1.9,0,1.9,0,3.801v38.199
		c0,5.701-3.8,9.602-9.6,9.602c-5.7,0-9.6-3.801-9.6-9.602v-23L131.6,321.5c-3.8,3.801-9.6,3.801-13.4,0s-3.8-9.6,0-13.4
		l15.3-15.299h-23c-5.7,0-9.6-3.801-9.6-9.602c0-5.799,3.8-9.6,9.6-9.6h38.2c1.9,0,1.9,0,3.8,0l44-44H89.8c0,1.9-1.9,1.9-1.9,3.801
		l-26.8,26.799c-3.8,3.801-9.6,3.801-13.4,0c-3.8-3.799-3.8-9.6,0-13.398L63,229.6H47.7c-5.7,0-9.6-3.799-9.6-9.6
		c0-5.8,3.8-9.6,9.6-9.6H63l-15.3-15.3c-3.8-3.8-3.8-9.6,0-13.4c3.8-3.8,9.6-3.8,13.4,0l26.8,26.8l1.9,1.9h109l-45.9-44
		c-1.9,0-1.9,0-3.8,0h-38.2c-5.7,0-9.6-3.8-9.6-9.6c0-5.7,3.8-9.6,9.6-9.6h23l-15.3-15.3c-3.8-3.8-3.8-9.6,0-13.4
		c3.8-3.8,9.6-3.8,13.4,0l15.3,15.3v-23c0-5.7,3.8-9.6,9.6-9.6c5.7,0,9.6,3.8,9.6,9.6V149c0,1.9,0,1.9,0,3.8l44,44V89.9l-1.9-1.9
		l-26.8-26.8c-3.8-3.8-3.8-9.6,0-13.4c3.8-3.8,9.6-3.8,13.4,0l15.3,15.3V47.8c0-5.7,3.8-9.6,9.6-9.6s9.601,3.8,9.601,9.6v15.3
		L246.9,45.9c3.801-3.8,9.601-3.8,13.4,0s3.8,9.6,0,13.4l-27,26.8c0,0-1.9,1.9-3.8,1.9v107.1l44-44c0,0,0-1.9,0-3.8v-38.2
		c0-5.7,3.8-9.6,9.6-9.6s9.601,3.8,9.601,9.6V134l15.3-15.3c3.8-3.8,9.6-3.8,13.399,0c3.801,3.8,3.801,9.6,0,13.4l-15.3,15.3h23
		c5.7,0,9.601,3.8,9.601,9.6c0,5.7-3.801,9.6-9.601,9.6h-38.2c-1.899,0-1.899,0-3.8,0l-44,44h109l1.9-1.9l26.8-26.8
		c3.8-3.8,9.6-3.8,13.4,0c3.8,3.8,3.8,9.6,0,13.4L378.6,210.4H392c5.7,0,9.6,3.8,9.6,9.6c0,5.801-3.8,9.6-9.6,9.6h-15.3
		L393.9,246.699z"/>
</g>
<g>
</g>
<g>
</g>
<g>
</g>
<g>
</g>
<g>
</g>
<g>
</g>
<g>
</g>
<g>
</g>
<g>
</g>
<g>
</g>
<g>
</g>
<g>
</g>
<g>
</g>
<g>
</g>
<g>
</g>
</svg>
