<?xml version="1.0" encoding="UTF-8" standalone="no"?>
<svg id="svg2" xmlns:rdf="http://www.w3.org/1999/02/22-rdf-syntax-ns#" xmlns="http://www.w3.org/2000/svg" height="1052.4" width="744.09" version="1.1" xmlns:cc="http://creativecommons.org/ns#" xmlns:xlink="http://www.w3.org/1999/xlink" xmlns:dc="http://purl.org/dc/elements/1.1/">
 <defs id="defs4">
  <linearGradient id="linearGradient4321" gradientUnits="userSpaceOnUse" x2="0" y1="367.95" y2="-.01991">
   <stop id="stop3516" offset="0"/>
   <stop id="stop3518" offset="1"/>
  </linearGradient>
  <linearGradient id="linearGradient4323" gradientUnits="userSpaceOnUse" x2="0" y1="52.151" y2="6.3941">
   <stop id="stop3521" stop-color="#202020" offset="0"/>
   <stop id="stop3523" stop-color="#be7929" offset="1"/>
  </linearGradient>
  <linearGradient id="linearGradient4325" gradientUnits="userSpaceOnUse" x2="0" y1="66.21" y2="14.73">
   <stop id="stop3526" stop-color="#202020" offset="0"/>
   <stop id="stop3528" stop-color="#be7929" offset="1"/>
  </linearGradient>
  <linearGradient id="linearGradient4327" gradientUnits="userSpaceOnUse" x2="0" y1="260.43" y2="23.585">
   <stop id="stop3531" stop-color="#7e5f39" offset="0"/>
   <stop id="stop3533" stop-color="#fea135" offset="1"/>
  </linearGradient>
  <linearGradient id="linearGradient4329" gradientUnits="userSpaceOnUse" x2="0" y1="135.67" y2="89.448">
   <stop id="stop3536" offset="0"/>
   <stop id="stop3538" offset="1"/>
  </linearGradient>
  <linearGradient id="linearGradient4331" gradientUnits="userSpaceOnUse" x2="0" y1="2.7768" y2="28.433">
   <stop id="stop3541" stop-color="#f2f2f2" offset="0"/>
   <stop id="stop3543" stop-color="#ffffd9" offset="1"/>
  </linearGradient>
  <linearGradient id="linearGradient4333" gradientUnits="userSpaceOnUse" x2="0" y1="36.543" y2="6.589">
   <stop id="stop3546" stop-color="#f2f2f2" offset="0"/>
   <stop id="stop3548" stop-color="#ffffd9" offset="1"/>
  </linearGradient>
  <linearGradient id="linearGradient4335" gradientUnits="userSpaceOnUse" x2="0" y1="98.68" y2="225.52">
   <stop id="stop3551" stop-color="#f2f2f2" offset="0"/>
   <stop id="stop3553" stop-color="#ffffd9" offset="1"/>
  </linearGradient>
  <linearGradient id="linearGradient4337" gradientUnits="userSpaceOnUse" x2="0" y1="317.39" y2="201.45">
   <stop id="stop3556" stop-color="#7e5f39" offset="0"/>
   <stop id="stop3558" stop-color="#fea135" offset="1"/>
  </linearGradient>
  <linearGradient id="linearGradient4339" gradientUnits="userSpaceOnUse" x2="0" y1="285.86" y2="196.87">
   <stop id="stop3561" stop-color="#7e5f39" offset="0"/>
   <stop id="stop3563" stop-color="#fea135" offset="1"/>
  </linearGradient>
  <linearGradient id="linearGradient4341" gradientUnits="userSpaceOnUse" x2="0" y1="288.87" y2="217.79">
   <stop id="stop3566" stop-color="#7e5f39" offset="0"/>
   <stop id="stop3568" stop-color="#fea135" offset="1"/>
  </linearGradient>
  <linearGradient id="linearGradient4343" gradientUnits="userSpaceOnUse" x2="0" y1="357.76" y2="260.43">
   <stop id="stop3571" stop-color="#7e5f39" offset="0"/>
   <stop id="stop3573" stop-color="#fea135" offset="1"/>
  </linearGradient>
  <linearGradient id="linearGradient4345" gradientUnits="userSpaceOnUse" x2="0" y1="366.93" y2="313.28">
   <stop id="stop3576" stop-color="#f2f2f2" offset="0"/>
   <stop id="stop3578" stop-color="#ffffd9" offset="1"/>
  </linearGradient>
  <linearGradient id="linearGradient4347" gradientUnits="userSpaceOnUse" x2="0" y1="114.64" y2="85.178">
   <stop id="stop3581" stop-color="#f2f2f2" offset="0"/>
   <stop id="stop3583" stop-color="#ffffd9" offset=".55"/>
   <stop id="stop3585" stop-color="#f2f2f2" offset="1"/>
  </linearGradient>
  <linearGradient id="linearGradient4349" gradientUnits="userSpaceOnUse" x2="0" y1="132.69" y2="127.94">
   <stop id="stop3588" stop-color="#f2f2f2" offset="0"/>
   <stop id="stop3590" stop-color="#ffffd9" offset=".55"/>
   <stop id="stop3592" stop-color="#f2f2f2" offset="1"/>
  </linearGradient>
  <linearGradient id="linearGradient4351" gradientUnits="userSpaceOnUse" x2="0" y1="129.2" y2="107.75">
   <stop id="stop3595" stop-color="#f2f2f2" offset="0"/>
   <stop id="stop3597" stop-color="#ffffd9" offset=".55"/>
   <stop id="stop3599" stop-color="#f2f2f2" offset="1"/>
  </linearGradient>
  <linearGradient id="linearGradient4353" gradientUnits="userSpaceOnUse" x2="0" y1="129.14" y2="114.33">
   <stop id="stop3602" offset="0"/>
   <stop id="stop3604" offset="1"/>
  </linearGradient>
  <linearGradient id="linearGradient4355" gradientUnits="userSpaceOnUse" x2="0" y1="89.866" y2="50.889">
   <stop id="stop3607" stop-color="#7e5f39" offset="0"/>
   <stop id="stop3609" stop-color="#fea135" offset="1"/>
  </linearGradient>
  <linearGradient id="linearGradient4357" gradientUnits="userSpaceOnUse" x2="0" y1="91.349" y2="68.664">
   <stop id="stop3612" offset="0"/>
   <stop id="stop3614" offset="1"/>
  </linearGradient>
  <linearGradient id="linearGradient4359" gradientUnits="userSpaceOnUse" x2="0" y1="81.086" y2="73.649">
   <stop id="stop3617" stop-color="#8a823f" offset="0"/>
   <stop id="stop3619" stop-color="#ff0" offset="1"/>
  </linearGradient>
  <linearGradient id="linearGradient4361" gradientUnits="userSpaceOnUse" x2="0" y1="74.709" y2="72.969">
   <stop id="stop3622" stop-color="#fff" offset="0"/>
   <stop id="stop3624" stop-color="#fff" offset="1"/>
  </linearGradient>
  <linearGradient id="linearGradient4363" gradientUnits="userSpaceOnUse" x2="0" y1="117.75" y2="116.04">
   <stop id="stop3627" offset="0"/>
   <stop id="stop3629" stop-color="#312d36" offset="1"/>
  </linearGradient>
  <linearGradient id="linearGradient4365" gradientUnits="userSpaceOnUse" x2="0" y1="126.09" y2="117.44">
   <stop id="stop3632" stop-color="#202020" offset="0"/>
   <stop id="stop3634" stop-color="#be7929" offset="1"/>
  </linearGradient>
  <linearGradient id="linearGradient4367" gradientUnits="userSpaceOnUse" x2="0" y1="118.23" y2="116.93">
   <stop id="stop3637" stop-color="#7e5f39" offset="0"/>
   <stop id="stop3639" stop-color="#fff" offset="1"/>
  </linearGradient>
  <linearGradient id="linearGradient4369" gradientUnits="userSpaceOnUse" x2="0" y1="114.57" y2="89.79">
   <stop id="stop3642" stop-color="#f2f2f2" offset="0"/>
   <stop id="stop3644" stop-color="#ffffd9" offset=".55"/>
   <stop id="stop3646" stop-color="#f2f2f2" offset="1"/>
  </linearGradient>
  <linearGradient id="linearGradient4371" gradientUnits="userSpaceOnUse" x2="0" y1="87.411" y2="51.781">
   <stop id="stop3649" stop-color="#7e5f39" offset="0"/>
   <stop id="stop3651" stop-color="#fea135" offset="1"/>
  </linearGradient>
  <linearGradient id="linearGradient4373" gradientUnits="userSpaceOnUse" x2="0" y1="85.773" y2="72.907">
   <stop id="stop3654" stop-color="#7e5f39" offset="0"/>
   <stop id="stop3656" stop-color="#fea135" offset="1"/>
  </linearGradient>
  <linearGradient id="linearGradient4375" gradientUnits="userSpaceOnUse" x2="0" y1="91.5" y2="68.74">
   <stop id="stop3659" offset="0"/>
   <stop id="stop3661" offset="1"/>
  </linearGradient>
  <linearGradient id="linearGradient4377" gradientUnits="userSpaceOnUse" x2="0" y1="75.239" y2="73.478">
   <stop id="stop3664" stop-color="#fff" offset="0"/>
   <stop id="stop3666" stop-color="#fff" offset="1"/>
  </linearGradient>
  <linearGradient id="linearGradient4379" gradientUnits="userSpaceOnUse" x2="0" y1="81.236" y2="73.724">
   <stop id="stop3669" stop-color="#8a823f" offset="0"/>
   <stop id="stop3671" stop-color="#ff0" offset="1"/>
  </linearGradient>
 </defs>
 <g id="layer1">
  <g id="g4273" transform="matrix(1.094 0 0 1.094 -65.155 -98.577)">
   <g id="g4237">
    <g id="g3673" fill-rule="evenodd" transform="matrix(2.2879 0 0 2.2879 160.89 206.31)">
     <path id="path3675" fill="url(#linearGradient4321)" d="m146.69 22.869c-5.356 6.846 0.743 15.919-6.1 22.688-0.82 1.564-0.82 1.564-1.49 3.051v3.869h-0.743c0 2.305 5.282 12.871-0.817 13.615 0 6.843-24.399 14.653 24.325 69.996 14.433 17.41 15.919 40.171 19.714 62.116 2.305 4.539 13.686 12.201 12.197 16.739-0.742 0.744-0.742 0.744 0 1.488 12.126 11.38 6.026 29.68 0.744 42.549 1.487 3.794 6.026 6.842 10.638 7.586v0.743c-0.817 2.382 6.769 2.382 9.819 4.542 9.968 6.99 15.994 16.81 17.557 28.191-0.745 12.871-7.589 25.813-14.506 36.45v-1.414c-1.563 0-1.563 0-3.051 1.414-27.373 28.864-69.104 22.764-105.26 18.97-27.82-2.9-37.194 11.233-73.272 12.569-4.612-0.817-11.977-4.906-15.768-5.65-3.051-1.637-5.359-1.416-9.82-0.819 5.282-6.025-5.951-4.837-10.637-4.09 30.499-25.442 39.87-53.337 46.045-64.051 9.894-0.221 18.82-7.513 32.136-8.48-12.202-13.166-26.335-31.54-32.731-64.718-0.148-4.76 0.743-8.33 2.233-12.048-0.744-0.894-0.522-0.673-1.266 0.147 0.744-3.869 4.388-4.762 7.365-4.762 1.561-6.844-5.208-15.25-6.323-20.234-1.188-4.835-1.266-26.78-6.547-38.161-10.197-31.56 21.119-63.021 0.812-83.254-7.439-7.144-12.647-17.781-14.506-25.441-1.115-4.391 0.744-10.637-1.487-13.614-1.49-6.172-3.868-13.015 0.372-17.182 1.635-1.564 8.33-2.529 15.544 2.676 7.365 5.134 21.352 26.111 41.437 24.101 33.697 2.532 24.919-17.554 57.202-31.838 11.61-4.551 11.47 15.383 6.18 22.226z"/>
     <path id="path3677" fill="url(#linearGradient4323)" d="m114.04 34.997 12.124-16.294s12.57-11.827 16.291-12.125c8.034-0.816 6.024 1.487 6.024 5.135 0 3.718-6.024 17.182-6.024 17.182v12.201l-5.134 11.083-23.28-17.182z"/>
     <path id="path3679" fill="url(#linearGradient4325)" d="m62.263 38.493-25.662-23.062s-8.705-3.42-9.522 4.836c-0.15 2.304 1.116 4.313 1.34 6.993 0.294 2.603-0.523 5.131-0.225 8.256 0.519 5.58 3.42 11.38 3.42 11.38s-2.676 0.596-1.786 0.821c2.904 1.115 5.061 4.612 5.061 4.612s-1.339 0.221-2.9 0.52c5.577 2.381 8.33 13.39 8.33 13.39l21.944-27.746z"/>
     <path id="path3681" fill="url(#linearGradient4327)" d="m59.808 24.658c-3.124-1.789 1.711 4.833 2.382 13.387-6.545-1.635-13.24 2.01-13.24 2.01s5.801-0.744 6.099 2.157c-5.506-0.744-13.835 2.679-13.835 2.679s6.173-1.862 7.737 1.263c-8.855 0.895-12.275 14.506-12.275 14.506s6.545-4.538 6.77-3.497c0.147 1.042-2.308 6.919-6.176 10.044 3.497 0 2.381 1.263 2.381 1.263s-0.222 9.746 0.298 14.804c0.372 5.061 4.911 13.464 4.911 13.464s-0.596 3.496-3.795 5.208c2.753 0.298 1.936 1.189 2.157 3.199-1.115 2.083-0.817 1.933-3.57 3.051 2.083 0.372 2.083 0.892 3.57 0.446-1.115 4.387-4.535 14.207-4.016 22.761 0.372 8.481 5.058 19.416 6.769 28.864 1.564 9.448 0.67 19.342 2.381 26.185 1.635 6.842 7.737 15.102 7.737 15.102l24.547 20.307s2.827 12.646 5.878 17.107c5.429 8.109 10.192 11.384 10.192 11.384l-2.083-5.358s7.511 1.191 16.365 15.473c4.759-10.339 36.747-56.906 36.747-56.906s5.728 44.558 21.871 24.623c24.621-29.383 24.249 31.319 24.249 31.319s6.024-13.243 6.024-27.527c0-12.198-4.538-10.189-7.811-15.618 4.465-5.134-7.81-11.159-9.522-17.184-2.973-10.34-4.387-30.426-10.934-45.898-4.389-10.785-8.404-14.952-12.943-23.505-4.61-8.48-5.431-17.41-12.199-26.928-3.72-5.135-7.812-8.186-7.812-8.186s4.909-1.115 3.722-2.006-7.664-2.532-8.183-5.804 2.378-7.289 2.974-10.266c0.522-3.125 1.34-10.486 1.34-10.486l1.115 1.115s2.307-6.397-2.752-14.134c-1.189-1.785 2.454 0.594 2.454 0.594s-1.041-4.536-5.653-6.247c-1.638-0.523-2.01-3.943 3.645-4.837-3.866-4.167-13.093-3.717-12.943-4.833 0.521-3.275 6.917-5.804 6.917-5.804s-9.521-0.372-15.099 1.561c-1.784-0.147 3.571-3.047 3.571-3.047s-4.093-0.821-9.224 1.114c-0.299-2.602 3.121-8.259 3.643-7.96 0 0-4.835-0.298-8.479 3.795-1.116 0.522 0.596-2.901 0.596-2.901s1.336 4.24-17.035 4.464c-17.335 0-19.864 0.667-26.036-3.647 0.596 1.192-1.414-0.817 0.743 2.083-3.08 0.01-4.194-2.74-4.194-2.74z"/>
     <path id="path3683" fill="url(#linearGradient4329)" d="m48.949 101.35h7.884l9 5.061 11.904 14.057s18.522 7.067 21.274 0.894c6.843-15.399 32.731-33.623 30.648-31.764-4.313 3.718-10.265 11.455-3.794 9.82 3.051-0.743 3.272 1.266 7.589 1.266-9.522-1.045-8.108 5.279-23.582 14.131-5.804 3.125-6.324 20.31-21.126 20.903-13.547 0.45-39.805-34.36-39.805-34.36z"/>
     <path id="path3685" fill="url(#linearGradient4331)" d="m146.69 3.008c1.932 0.523 3.794 5.952 0.891 12.423 0-8.853-8.256-8.404-17.255 0.298 3.124-0.298 4.46-1.189 6.769 1.339-10.637 0-14.955 15.025-20.086 10.564-3.71-5.135 20.32-27.226 29.69-24.624z"/>
     <path id="path3687" fill="url(#linearGradient4333)" d="m26.335 7.472c2.083-2.157 9.445 0.074 13.24 2.382 7.589 6.172 21.72 22.537 17.481 26.184-2.828 2.455-9.892-4.093-15.177-4.093 5.285-1.486-0.817-5.282-5.948-4.686-3.794 0.817 2.231-1.859 3.718-1.859 9.894 3.048-11.977-16.294-12.72-3.573-1.414-5.281-2.677-12.271-0.594-14.355z"/>
     <path id="path3689" fill="url(#linearGradient4335)" d="m137.54 99.118c-8.406 1.635-9.596 5.654-8.853 7.589 0.67 2.006 5.058 2.006 6.622 6.544 1.486 4.538 2.23 10.637 2.23 16.663-2.23-2.974-8.406-2.974-7.663 1.561 2.308 3.868 3.646 6.621 4.688 11.458 0.52 2.974 0.744 10.563-0.82 14.357-0.817-1.563-0.817-1.563-2.231-3.794 1.189 19.563-3.868 25.143-10.71 35.556 6.396-2.602 6.917-2.602 10.71-2.602-3.793 2.23-7.586 8.701-8.406 12.57 6.548-7.737 4.689-5.282 6.25-5.503-1.265 1.189-0.968 3.125-1.265 5.503 3.941-9.15 10.116-14.429 16.886-15.919-4.016 2.381-5.951 4.465-6.694 6.769-1.562 4.836-2.23 6.102-6.771 9.15-5.428 1.416-5.428 7.589-6.172 12.871-3.721-3.718-5.282-0.743-5.282 3.051-3.051-3.051-6.024-4.538-9.075-3.051-4.538 0.817-3.795 11.455-7.513 7.513-2.307 0-3.125 3.125-3.125 6.175-6.026-12.871-22.913-14.954-30.499-25.665-1.563-2.676-3.721-10.044-3.721 0.372-5.282-11.381-12.125-30.127-11.381-42.995-1.413-3.051-4.538 2.305-4.538 3.792 0.817-7.586-3.794-12.647-4.313-18.076-1.042-9.82-4.314-22.688 3.717-30.649-0.593 0.224-3.121-0.372-5.205 2.753 0.52-4.313 0.892-8.925 5.503-11.977 0-1.487-1.263-0.67-4.388-0.67 3.794-2.974 16.588 0.67 6.843 3.125 9.521 0.596 7.291 1.413 11.604 2.9 3.423 1.118 8.036 6.249 10.563 15.252-0.82 2.974 9.449 10.339 14.208 10.114 12.197-0.519 14.951-13.835 15.547-14.506 3.199-4.833 1.042-7.365 12.05-12.124 7.88-6.98 13.46-9.73 21.19-8.092z"/>
     <path id="path3691" fill="url(#linearGradient4337)" d="m57.503 201.48s-3.647 20.682-4.464 30.576c-0.892 9.967-0.148 21.72-0.968 31.466-0.817 9.82-3.57 19.117-5.429 27.524-1.859 8.329-12.274 24.101-8.852 26.184 3.423 2.157 29.456-13.018 29.456-13.018s5.953-34.367 7.292-41.434c1.34-6.993 2.304-19.268 2.9-25.591 0.671-6.471 3.199-15.993 3.199-15.993s-6.323-14.282-13.391-15.547c-2.455-0.519 1.043 3.051 1.043 3.051s-4.315-0.894-6.099-2.01c-1.786-1.2-4.687-5.21-4.687-5.21z"/>
     <path id="path3693" fill="url(#linearGradient4339)" d="m120.28 249.08c-1.115 11.38-2.528 26.335-5.429 34.219 8.333-1.712 22.464 2.602 22.464 2.602s4.909-16.588 7.144-29.457c2.23-12.794 10.858-25.441 6.099-47.757-1.267-5.134-3.498-10.416-6.099-11.16-11.904-3.346-17.26 8.109-17.26 8.109l-1.041 14.208-5.059-4.016c0.01 0.01 0.46 21.73-0.81 33.26z"/>
     <path id="path3695" fill="url(#linearGradient4341)" d="m144.91 266.04c1.34-4.24 10.339-27.3 10.339-27.3l2.455 5.131s0.743-11.455 3.422-15.992 6.545-9.15 14.805-10.041c12.496-1.119 16.438 14.804 16.438 14.804l-3.051-2.382s6.102 23.432-5.429 44.187c-2.305 4.462-4.09 11.23-18.002 14.282-7.365 1.561-20.977-5.653-20.977-5.653s-3.93-3.87 0.01-17.04z"/>
     <path id="path3697" fill="url(#linearGradient4343)" d="m192.22 260.46c3.791 0.817 6.024 5.135 12.868 5.804-0.896 0.744-2.976 1.859-2.976 2.603 6.026 0.817 12.496 1.266 17.926 6.547 5.282 5.355 10.416 12.717 11.83 21.124 1.561 13.762-5.728 27.152-13.243 38.831 0-0.892 0.224-1.936-0.594-3.497-17.78 22.242-40.541 25.515-65.537 25.96-21.124-0.667-39.127-5.503-56.536-3.718 6.919-5.355-60.179-32.729-68.509-25.96 4.612-8.406 12.125-15.995 19.714-21.274 18.298-9.894 57.946-14.284 42.847-19.938 10.486-3.868 30.573-3.57 36.671-2.68 7.887 1.192 6.249 3.574 14.655 2.086-0.743-0.746-0.743-0.746-1.563-2.233 1.563-1.561 6.92 1.487 9.894 3.721 9.895 5.355 24.325 4.612 31.169-5.282 6.1-6.91 6.77-15.24 11.38-22.09z"/>
     <path id="path3699" fill="url(#linearGradient4345)" d="m70.744 313.65c-2.975 0-8.702 4.016-3.347 3.272 7.586 0 13.24 1.34 20.086 5.132 0.743-1.487 0.743-1.487-0.82-3.048 9.224 2.381 19.713 11.753 16.813 22.762-0.968 3.647-3.647 6.769-8.109 7.586 3.347 1.638 1.562 3.647 2.382 4.317-11.384 3.048-7.961-0.15-20.163 4.461-7.513 2.234-22.835 8.855-41.136 8.855-7.66-1.563-15.102-8.186-25.216-6.028 2.974-3.792 5.58-5.429 4.089-7.736-4.094 3.59-12.427 3.96-15.327 3.96 12.125-8.852 15.547-18.599 23.729-26.261 0 0 15.846-11.156 15.102-11.9 12.869-7.66 15.175-5.36 31.913-5.36z"/>
     <path id="path3701" fill="url(#linearGradient4347)" d="m72.009 114.66s0-12.422-3.35-16.813c-3.419-4.314-14.432-1.487-22.39-12.644-0.743 1.933-0.967 8.702 6.1 13.836-2.455 0.964-3.125 2.157-3.125 2.157s7.44-0.225 11.087 2.826c-0.895 0-4.315 0.593-4.315 0.593s6.471 2.01 9.074 3.198c3.868 1.79 6.919 6.84 6.919 6.84z"/>
     <path id="path3703" fill="url(#linearGradient4349)" d="m88.521 128.06s-5.875-0.744-6.398 2.083c-0.221 0.817 1.34 2.901 6.622 2.603 4.464-0.225 7.662-1.786 7.589-2.603-0.522-2.83-7.813-2.08-7.813-2.08z"/>
     <path id="path3705" fill="url(#linearGradient4351)" d="m78.182 108.86c-0.372-1.192-3.125 3.494-4.612 6.769-1.115 2.378-0.224 6.842 0.522 9 2.231 5.804 8.926 4.539 14.43 4.464 5.282-0.074 10.192-0.298 12.871-2.381 3.791-2.68 3.048-8.926 2.007-11.307-1.189-2.382-5.206-8.853-5.651-7.439-0.596 2.231-1.789 7.961-1.789 7.961l-15.323 0.744c0 0.02-0.67-0.73-2.455-7.8z"/>
     <path id="path3707" fill="url(#linearGradient4353)" d="m81.306 115.48c5.282-1.561 8.554-1.34 14.135-0.221 1.042 1.708 1.042 3.792-0.895 8.554-0.743 2.23-5.8 2.974-5.8 2.974s1.414 2.606-0.596 2.382l0.372-2.382s-4.834-0.669-6.1-2.676c-1.712-2.74-2.827-8.17-1.116-8.62z"/>
     <path id="path3709" fill="url(#linearGradient4355)" d="m102.14 71.966s1.638-6.769 1.264-10.785c-0.372-3.944-1.86-10.265-1.86-10.265s2.53 1.487 4.02 4.314c1.562 2.676 4.759 6.323 4.759 6.323l1.936-7.737s1.786 8.778 0 12.721c-1.785 3.942-0.297 2.827-0.297 2.827s11.155 3.941 13.762 5.727c8.999 6.396 3.791 14.804 3.791 14.804s3.722-13.538-14.355-13.019c-5.36 0.147-13.02-4.91-13.02-4.91z"/>
     <path id="path3711" fill="url(#linearGradient4357)" d="m102.66 68.693 1.192 2.603s0.743-0.148 3.57-0.965c6.173-2.01 5.503 4.017 13.983 5.356 1.563 0.221-4.016 0.445-5.875 0.221-1.266 1.266-2.083 4.24-4.612 5.208-2.679 0.967-6.473 0.894-10.192-0.52-1.71 5.875 3.571 10.785 3.571 10.785l-5.43-3.422s-1.115-2.081-1.339-6.324c-0.075-2.007 2.603-4.164 3.419-6.173 0.82-2.083 1.72-6.769 1.72-6.769z"/>
     <path id="path3713" fill="url(#linearGradient4359)" d="m103.62 75.687c-4.017 3.57 0.297 4.91 3.721 5.429 5.653-0.224 5.948-4.241 6.471-6.025-1.488-0.52-0.299-1.042-2.308-1.414-0.66 7.958-6.84 6.843-7.88 2.01z"/>
     <path id="path3715" fill="url(#linearGradient4361)" d="m108.53 73.379c2.752-1.116 4.464 0.519 3.72 1.192-0.82 0.744-2.16-0.894-3.72-1.192z"/>
     <path id="path3717" fill="url(#linearGradient4363)" d="m92.687 117.05c-2.156-1.564-5.204-0.747-7.586-0.747-0.669 2.23 5.43 1.49 7.586 0.75z"/>
     <path id="path3719" fill="url(#linearGradient4365)" d="m83.242 120.32c5.279 2.679-6.102 3.051 5.801 5.801 0-3.122-0.521-6.25-0.521-8.628-2.306 0-5.578 0.298-7.141 0.298 0 2.53-0.818 1.19 1.861 2.53z"/>
     <path id="path3721" fill="url(#linearGradient4367)" d="m81.082 117.79s7.961 1.561 12.425-0.82l-12.425 0.82z"/>
     <path id="path3723" fill="url(#linearGradient4369)" d="m105.56 114.59s-0.521-10.637 2.9-14.955c3.272-4.24 9.744-5.576 21.051-9.817-4.76 3.869 3.35 2.083-3.718 7.288 2.455 0.968 2.603 1.119 2.603 1.119s-3.941 4.237-9.893 4.237c0.894 0 2.233 1.118 2.233 1.118s-5.805 5.131-9.449 4.907c-3.79 1.78-5.72 6.1-5.72 6.1z"/>
     <path id="path3725" fill="url(#linearGradient4371)" d="m72.603 69.883s-2.452-4.536-2.452-7.438c0-5.131 3.567-10.637 3.567-10.637s-4.611 5.281-5.728 7.291c-2.379 3.869-1.786 8.406-1.786 8.406s-3.124-2.233-4.611-5.579c-0.593-1.638-0.299-6.622-0.299-6.622s-2.304 10.192-2.827 12.794c-0.519 2.679 0.895 11.978 5.136 11.16 16.588-3.721 13.389 8.182 13.389 8.182l-1.115-9.968-3.274-7.589z"/>
     <path id="path3727" fill="url(#linearGradient4373)" d="m58.99 75.091s-6.471-2.157-9.297-2.157c-2.904 0-9.301 2.381-9.301 2.381l8.705 0.891s-3.942 1.266-5.208 2.528c-1.339 1.487-2.602 6.102-2.602 6.102l4.91-2.528v3.493s2.23-4.686 4.91-5.801c5.281-2.381 11.9 0.52 11.9 0.52l-1.414-4.686-2.603-0.743z"/>
     <path id="path3729" fill="url(#linearGradient4375)" d="m72.973 68.768-1.412 2.679s-0.148-0.967-3.048-1.563c-5.433-1.115-5.878 4.612-14.506 5.951-1.563 0.151 4.016 0.522 5.877 0.151 1.264 1.263 2.082 4.314 4.761 5.281 2.601 0.965 6.396 0.817 10.117-0.522 1.709 5.951-3.647 10.788-3.647 10.788l5.581-3.496s1.042-2.083 1.263-6.323c0-1.936-2.603-4.093-3.42-6.102-0.822-2.159-1.566-6.844-1.566-6.844z"/>
     <path id="path3731" fill="url(#linearGradient4377)" d="m67.618 73.898c2.679-1.112 4.54 0.449 3.795 1.192-0.817 0.744-2.307-0.817-3.795-1.192z"/>
     <path id="path3733" fill="url(#linearGradient4379)" d="m71.858 75.834c4.019 3.497-0.372 4.91-3.791 5.432-5.581-0.224-5.953-4.167-6.474-6.175 1.563-0.446 0.297-0.968 2.307-1.339 0.745 8.034 6.844 6.919 7.958 2.082z"/>
    </g>
   </g>
   <g id="g4223">
    <a id="a4206" transform="matrix(.82542 0 0 .82542 119.72 144.51)">
     <g id="g4175" transform="matrix(1.0967 -.21803 .21803 1.0967 -72.802 -8.481)">
      <g id="g4270">
       <path id="path4149" d="m225.2 4.3978c-28.1 7.7342-56.9 23.114-77.17 38.006-20.26 14.892-73.187 52.417-85.271 64.306-11.716 11.529-25.555 15.55-31.611 29.756-2.3354 5.4786 15.837 22.005 19.398 23.721 9.2413 4.4528 24.305-3.4428 31.178-3.9143 22.307-1.5303 45.167-4.4987 67.76 10.793-4.1805 4.2205 2.458-0.32326-6.0877 36.693-3.0135 13.053-9.5987 46.919-1.5071 53.38 8.0394 6.4196 12.949-18.606 20.937-14.774-0.004 0.006-0.002 0.0211-0.005 0.0264-0.002 0.005-0.004 0.0222-0.005 0.0264-0.00062 0.004-0.006 0.0233-0.005 0.0264l0.0249 0.005c0.0243 0.007 0.0776 0.004 0.12878-0.002 0.015 0.007 0.0346 0.002 0.0497 0.01l0.16487 0.0866 0.0475-0.12726c3.7814-0.9773 33.263-13.966 60.176-8.743 15.171 2.9441 39.369-5.3096 53.29-9.6152 22.076-6.828 53.068-12.998 72.728-13.351 14.483-0.25954 27.587-8.459 41.521-9.4148 8.2204-0.56393 0.59821-27.066 0.42828-29.866-0.82-13.47-17.57-34.14-26.2-52.52-8.63-18.37-23.08-41.693-39-59.982s-37.4-41.971-52.53-49.258c-15.12-7.2877-17.95-13.676-48.45-5.2822z" fill-rule="evenodd" stroke="#000" stroke-width=".83349" fill="#d00000"/>
      </g>
      <path id="path4151" opacity=".10112" d="m158.05 68.958c-18.233 4.4166-33.848 62.691-56.319 72.822-14.697 6.6258-54.749 16.693-51.188 18.408 9.2413 4.4528 24.305-3.4428 31.178-3.9143 22.307-1.5303 45.167-4.4987 67.76 10.793-4.1805 4.2205 2.458-0.32326-6.0877 36.693-3.0135 13.053-9.5987 46.919-1.5071 53.38 8.0394 6.4196 12.949-18.606 20.937-14.774-0.004 0.006-0.002 0.0211-0.005 0.0264-0.002 0.005-0.004 0.0222-0.005 0.0264-0.00062 0.004-0.006 0.0233-0.005 0.0264l0.0249 0.005c0.0243 0.007 0.0777 0.004 0.12878-0.002 0.015 0.007 0.0346 0.002 0.0497 0.01l0.16487 0.0866 0.0475-0.12726c3.7814-0.9773 33.263-13.966 60.176-8.743 15.171 2.9441 39.369-5.3096 53.29-9.6152 22.076-6.828 53.068-12.998 72.728-13.351 14.483-0.25954 27.587-8.459 41.521-9.4148 8.2204-0.56393-51.085 4.5206-27.45-12.576 10.485-7.5843-104.98 15.808-149.31-34.777-43.895-50.088-37.455-89.506-56.127-84.983z" fill-rule="evenodd" fill="#0e0000"/>
      <path id="path4153" opacity=".26966" d="m33.021 130.25c3.5509 2.3529 27.398 32.517 30.215 30.406 0.34059-3.3309-2.4407-4.6421-4.3971-5.0224 2.6196-3.3292 3.1135-6.8106-1.4325-7.1096-5.0402-0.88997-10.543-1.5143-5.1325-6.9359 2.4978-3.0387-0.16794-8.4351-1.7017-11.18-4.0295-2.1764-7.066-6.1144-8.7176-8.7913" fill-rule="evenodd" stroke="#000" stroke-width=".83016"/>
      <path id="path4155" opacity=".29405" d="m356.69 195.2c-7.4512-2.6426-16.801-5.6948-23.39-5.2874-4.525-3.8225-7.9982 0.88788-11.919 2.1416-0.65796-7.3597-11.511 3.1123-16.291 3.1725-3.3945 1.9483-1.0548-5.8005-7.1335-2.8531-7.5576 0.71399-12.232 1.2332-17.839 3.6605-1.3466 8.0128-13.449 12.527-15.26 3.7443-6.5985 2.8714-18.869 8.4412-18.948-0.64163-10.564 8.194-10.9 15.598-21.214 19.553 0.9126-7.0922-22.371-10.908-25.544-3.4647-6.3896 2.5731 1.3292-9.321-7.9046-6.0523-10.401-3.0239-4.347 17.935-25.554 9.366-11.808-0.37982-5.2687 16.719-13.061 23.882-2.0761 7.5323-11.084-2.624-14.729-2.0601 0.84795 11.927 3.4077 7.8823 0.71924 15.997-1.6041 10.165-3.7513 15.255 7.4318 17.372 3.6212-4.9036-0.18205-2.829 0.62793 6.2175 6.4576-1.8798 14.946-12.64 14.075-1.5814 4.382-6.6733 18.254-10.151 18.08-17.339 7.0218 0.73709 14.902 8.5794 20.83-0.95297 5.9508-7.0412 14.504-10.307 14.594-4.8686 7.2338 6.7565 7.9572 5.3873 15.478 3.6678-1.9372-8.7117 17.599-0.59857 7.2827-9.2717 4.0976-4.1035 15.187-6.5014 21.596-5.0754 5.6695 8.2542 22.944 8.9372 25.632-1.747 0.564-8.4043 13.682-11.279 18.587-5.4682 8.5297-7.4786 21.984 3.3885 29.324-2.3442-6.5976-8.563 9.3244-14.158 12.298-7.593 5.8417-3.1366 11.278-14.423 17.668-6.3428 7.3499-2.3952 16.325-5.7256 22.542-8.2218 4.6667 7.6932 16.747-0.2211 11.511-9.5323-2.8348-6.6507 9.3098 3.2744 6.0035-5.1637-3.7609-9.0769-9.0426-21.692-15.514-21.275-8.8124-2.2019-14.038 3.7449-14.403 12.16-0.11142-6.1411-10.522-0.155-15.983 2.0719l-2.9939 0.71227-3.5769-2.5229" fill-rule="evenodd" stroke="#000" stroke-width=".60143"/>
      <path id="path4157" d="m361.62 197.45c-7.4512-2.6426-14.356-3.0141-20.945-2.6067-4.525-3.8225-9.8949-2.5689-13.816-1.3152-0.65796-7.3597-9.614 6.5691-14.395 6.6293-3.3945 1.9483-1.0548-5.8005-7.1335-2.8531-7.5575 0.71399-16.319-3.9722-21.925-1.545-1.3467 8.0128-13.449 12.527-15.26 3.7443-6.5986 2.8714-14.782 13.647-14.862 4.5638-12.385-0.54289-17.69 11.633-28.004 15.588 0.91261-7.0922-15.581-6.943-18.755 0.50038-6.3896 2.5731-1.6992-13.439-10.933-10.17-10.401-3.0239-10.117 17.697-22.525 13.484-11.808-0.37982-10.159 11.358-17.951 18.521-2.0761 7.5323-6.1937 2.7373-9.8394 3.3013 5.9991 8.5138-18.393 6.7404-11.152 19.87-1.6041 10.165 0.84851 17.472 12.032 19.589 3.6212-4.9036 7.0889-8.9191 7.8989 0.12732 6.4576-1.8798 14.946-12.64 14.075-1.5814 4.382-6.6733 18.254-10.151 18.08-17.339 7.0218 0.73706 14.902 8.5794 20.83-0.953 5.9508-7.0412 6.9335-1.296 7.0233 4.1423 7.2338 6.7565 15.528-3.6235 23.049-5.343-1.9372-8.7116 17.599-0.59857 7.2827-9.2717 4.0976-4.1034 15.187-6.5014 21.596-5.0754 5.6232 5.3341 22.944 8.9372 25.632-1.747 0.564-8.4043 13.682-11.279 18.587-5.4682 8.5297-7.4786 21.984 3.3885 29.324-2.3442-6.5976-8.563 9.3245-14.158 12.298-7.593 5.8417-3.1366 11.278-14.423 17.668-6.3428 7.3498-2.3952 16.325-5.7256 22.542-8.2218 4.6667 7.6932 16.747-0.2211 11.511-9.5323-2.8348-6.6507 9.3097 3.2744 6.0035-5.1637 0.0738-9.6565-3.5631-24.6-15.514-21.275-8.8124-2.2018-14.038 3.7449-14.403 12.16-0.11145-6.1411-14.026-3.9235-19.486-1.6966l-1.7889 0.94611-1.2786 1.0118" fill-rule="evenodd" stroke="#000" stroke-width=".60143" fill="#fff"/>
      <path id="path4159" d="m146.78 186.5c3.1401-40.847 23.785-59.45 20.151-92.121-2.1481-19.31-19.537-4.6727-13.869 13.442" stroke="#000" stroke-width=".83349" fill="none"/>
      <path id="path4161" opacity=".11236" d="m155.08 242.23c-2.0761 7.5323-6.1937 2.7373-9.8394 3.3013 5.9992 8.5138-18.393 6.7404-11.152 19.87-1.6041 10.165 0.84853 17.472 12.032 19.589 3.6212-4.9036 7.0889-8.9191 7.8989 0.12735 6.4576-1.8798 14.946-12.64 14.075-1.5814 4.382-6.6733 18.254-10.151 18.08-17.339 7.0218 0.73706 14.566 7.3497 20.493-2.1828 5.9508-7.0412 7.27-0.0663 7.3598 5.372 7.2338 6.7565 15.528-3.6235 23.049-5.343-1.9372-8.7117 8.8664-1.5453 7.2827-9.2717-1.0372-5.0602 33.645-3.562 28.657-8.5104-14.906-14.787-38.191 7.4921-41.56 6.0701-3.3689-1.422-7.0912-0.55957-2.3849-2.7193 4.7064-2.1597-6.7425 1.3925-16.277-1.9944-9.535-3.3868-16.514 0.89493-17.151 9.3428-7.1818-4.4667-7.6963 0.60684-18.885 3.718 7.1295-10.423-12.6-2.7688-12.6-2.7688s3.4373-11.428-2.7394-9.9196c3.3207-5.9642-0.3649-7.8016-0.3649-7.8016s1.8191-5.1215-5.9734 2.0414z" fill-rule="evenodd"/>
      <path id="path4163" d="m38.042 121.86c-1.3017-2.3183-5.3575-2.9566-5.8794-4.9226 0.90649-2.2834-2.6591-0.62718-3.3617-1.8824-4.1944 3.4336-9.9845 4.9199-13.093 9.6425 1.6528-0.36246 1.6488-2.7786-0.15705-0.99614-3.4011 1.6896-6.6882 4.6577-5.4093 8.8928 0.30978 2.1732-2.4256 4.0433 0.91357 4.558-0.43541 3.4793-5.655 3.3328-5.6581 6.4037 1.1553 3.3495 0.64712 6.8402-2.1007 9.1896-2.718 2.5418-1.5986 6.2831-1.4996 9.3708-1.367 2.0653-2.1364 3.9857-0.33471 5.953 0.38145 3.5482 3.327 5.8976 3.3489 9.5893 1.24 1.9349 3.7267 1.8152 4.9968 4.0018 3.7105 0.3154 3.9827 5.4965 7.5172 6.2151 3.0362 0.99028 6.6286 0.30362 9.3644 1.0298 2.2437 1.819 4.8192 3.0869 7.6439 3.5977 3.5509 2.26 4.7578-3.3648 6.9067-5.176 0.11142-2.832 2.146-3.0523 3.5085-0.66771 3.101 2.1024 6.314-1.5181 8.5372-3.4338 2.1735-2.369 4.6119-4.42 7.0321-6.4972 3.4359-3.8786 4.6558-9.4297 4.4636-14.535 0.34059-3.1993-2.6341-3.3763-4.5905-3.7416 0.88458-2.6823 3.1134-6.5416-1.4325-6.8289-2.607-0.68089-8.5173-3.5936-5.1325-6.662 2.4978-2.9187-0.93976-6.8477-2.4735-9.4842-2.6562-2.1141-4.1995-5.0589-5.8512-7.6301-3.1977-0.50952-6.1943-2.4527-7.0095-5.8451-0.85364-2.694-0.2364-0.69904 0.03297 0.61246" fill-rule="evenodd" stroke="#000" stroke-width=".8136" fill="#fff"/>
      <path id="path4165" opacity=".095510" d="m11.502 157.46c-1.6013-1.9684 4.7214-1.0412 4.1995-3.0071 0.90649-2.2834-0.17827-2.3785-0.88086-3.6337-4.1944 3.4336-3.2066-4.7009-6.3148 0.0218 1.6528-0.36247 1.381-6.3336-0.42488-4.5512-3.4011 1.6896-2.6805-5.8059-2.6836-2.735 1.1553 3.3495 0.64712 6.8402-2.1007 9.1896-2.718 2.5418-1.5986 6.2831-1.4996 9.3708-1.367 2.0653-2.1364 3.9857-0.33471 5.953 0.38145 3.5482 3.327 5.8976 3.3489 9.5893 1.24 1.9349 3.7267 1.8152 4.9968 4.0018 3.7105 0.3154 3.9827 5.4965 7.5172 6.2151 3.0362 0.99028 6.6286 0.30362 9.3644 1.0298 2.2437 1.819 4.8192 3.0869 7.6439 3.5977 3.5509 2.26 4.7578-3.3648 6.9067-5.176 0.11142-2.832 2.146-3.0523 3.5085-0.66771 3.101 2.1024 6.314-1.5181 8.5372-3.4338 2.1735-2.369-8.346 0.35931-5.9258-1.7178 3.4359-3.8786-7.7525 5.4138-7.9447 0.30847 0.34058-3.1993-12.37 4.0706-9.6785-1.5539 0.88459-2.6823 1.5359-0.74791-3.0101-1.0352-2.607-0.68091-9.8035-5.4936-6.4187-8.5621 2.4978-2.9187-1.3421 0.45637-2.8758-2.1801-2.6562-2.1141-0.95965-0.95001-2.6113-3.5212-3.1977-0.50952-1.7918-1.8166-2.607-5.209-1.3834 3.9801-0.98151-3.6051-0.71214-2.2936z" fill-rule="evenodd"/>
      <path id="path4167" fill-rule="evenodd" fill-opacity=".22346" d="m148.77 167.98s13.145-33.512 16.303-46.882c2.955-12.509 2.5726-31.603-1.8531-35.137-4.4258-3.5341-10.247 2.5783-10.861 9.816-0.61354 7.2377-1.1274 9.0616 1.8435 22.867 1.3468 6.2585 0.67416 21.093-1.1569 28.095-1.8311 7.0015-5.8267 22.946-4.2758 21.241z"/>
     </g>
    </a>
   </g>
  </g>
 </g>
</svg>
