<?xml version="1.0" standalone="no"?>
<!DOCTYPE svg PUBLIC "-//W3C//DTD SVG 20010904//EN"
 "http://www.w3.org/TR/2001/REC-SVG-20010904/DTD/svg10.dtd">
<svg version="1.0" xmlns="http://www.w3.org/2000/svg"
 width="1280.000000pt" height="1280.000000pt" viewBox="0 0 1280.000000 1280.000000"
 preserveAspectRatio="xMidYMid meet">
<metadata>
Created by potrace 1.15, written by Peter Selinger 2001-2017
</metadata>
<g transform="translate(0.000000,1280.000000) scale(0.100000,-0.100000)"
fill="#000000" stroke="none">
<path d="M6060 12454 c-817 -58 -1506 -226 -2215 -539 -1089 -481 -2056 -1317
-2684 -2320 -494 -789 -781 -1621 -887 -2565 -21 -197 -30 -773 -15 -996 99
-1422 700 -2749 1710 -3777 1191 -1212 2853 -1883 4571 -1844 967 22 1851 243
2710 678 1050 531 1915 1343 2510 2354 106 181 301 578 379 771 445 1110 548
2292 301 3456 -149 703 -451 1421 -855 2034 -835 1264 -2129 2179 -3619 2559
-321 82 -624 135 -976 171 -148 15 -796 27 -930 18z m635 -1974 c311 -18 565
-61 855 -144 718 -206 1369 -617 1806 -1141 46 -55 84 -105 84 -111 0 -7 7
-15 16 -18 8 -3 12 -10 9 -16 -3 -5 -1 -10 4 -10 6 0 11 -6 11 -14 0 -17 -33
-31 -38 -17 -2 6 -8 11 -13 11 -5 0 -17 8 -27 18 -28 26 -271 225 -297 242
-12 8 -67 49 -121 89 -411 310 -964 587 -1464 736 -389 115 -782 188 -1165
215 -71 5 -157 12 -190 14 -51 5 -264 17 -317 20 -13 0 -18 9 -18 29 0 16 4
26 10 22 6 -3 10 -1 10 5 0 6 5 8 10 5 6 -4 16 -2 23 3 7 6 14 10 17 10 7 0
54 8 171 28 53 8 174 19 270 23 96 5 176 9 179 9 3 1 82 -3 175 -8z m-875
-106 c0 -8 -4 -14 -10 -14 -5 0 -10 9 -10 21 0 11 5 17 10 14 6 -3 10 -13 10
-21z m-3436 -412 c10 -17 -38 -98 -216 -362 -332 -494 -517 -831 -680 -1240
-661 -1655 -437 -3462 615 -4960 118 -168 325 -441 456 -600 16 -20 44 -60 62
-90 18 -30 37 -57 42 -58 4 -2 3 -10 -3 -17 -24 -29 -193 69 -389 224 -317
252 -625 594 -881 976 -602 901 -876 2026 -749 3090 121 1025 585 1999 1285
2699 145 145 305 278 385 319 57 29 65 31 73 19z m4421 -637 c341 -51 687
-166 978 -326 1009 -552 1598 -1634 1507 -2764 -106 -1304 -1093 -2384 -2390
-2614 -199 -35 -337 -44 -584 -38 -457 11 -820 98 -1213 292 -303 148 -533
308 -767 535 -494 477 -792 1075 -871 1746 -17 146 -20 452 -5 594 56 539 258
1035 600 1480 109 142 382 409 532 521 407 303 845 490 1338 569 245 39 630
42 875 5z m2690 -335 c-3 -5 -10 -10 -16 -10 -5 0 -9 5 -9 10 0 6 7 10 16 10
8 0 12 -4 9 -10z m15 -15 c-7 -8 -18 -15 -24 -15 -6 0 -2 7 8 15 25 19 32 19
16 0z m590 -4083 c0 -35 -38 -155 -84 -265 -109 -264 -284 -549 -493 -806
-123 -151 -415 -438 -573 -564 -630 -503 -1383 -803 -2200 -877 -157 -15 -539
-15 -690 0 -341 32 -611 89 -904 190 -281 97 -539 230 -652 337 -36 34 -68 83
-45 68 5 -3 12 -1 15 4 10 16 205 -12 447 -64 214 -47 571 -96 834 -114 179
-13 607 -6 800 13 1186 118 2233 625 2984 1446 112 123 273 323 411 510 116
157 150 185 150 122z"/>
</g>
</svg>
